Coordinates
version=1
nRows=37
nColumns=19
inDegrees=yes

Units are S.I. units (second, meters, Newtons, ...)
If the header above contains a line with 'inDegrees', this indicates whether rotational values are in degrees (yes) or radians (no).

endheader
time	pelvis_tilt	pelvis_list	pelvis_rotation	pelvis_tx	pelvis_ty	pelvis_tz	hip_flexion_r	hip_adduction_r	hip_rotation_r	knee_angle_r	knee_angle_r_beta	ankle_angle_r	hip_flexion_l	hip_adduction_l	hip_rotation_l	knee_angle_l	knee_angle_l_beta	ankle_angle_l
     15.25333333	     -1.96971876	     -4.65128067	      0.76405736	      2.43404542	      0.95968436	      1.08236289	     20.28817913	      7.48439361	    -10.24438294	      9.89524129	      0.17270454	      8.54003495	    -11.44225843	    -11.35239382	    -11.42155251	     43.67677556	      0.76230354	     -9.83202227
     15.26000000	     -1.07747488	     -5.17072163	      0.75322499	      2.43394068	      0.95642123	      1.08295163	     19.69002851	      7.94110201	    -10.89770715	     11.69640983	      0.20414086	      8.29195738	    -11.40594162	    -12.25242340	    -10.90745463	     46.79354013	      0.81670134	     -8.90392691
     15.26666667	     -0.07104688	     -5.72636345	      0.69428849	      2.43377568	      0.95286191	      1.08349822	     19.00961738	      8.40342498	    -11.59344672	     13.76255865	      0.24020196	      7.95152409	    -11.48173144	    -13.16362093	    -10.49207931	     49.88732573	      0.87069809	     -7.91579114
     15.27333333	      0.54275324	     -6.24118358	      0.82816205	      2.43342833	      0.94849483	      1.08382625	     18.85208671	      8.67621110	    -12.61624780	     16.16884890	      0.28219965	      7.63230471	    -10.90095837	    -14.04933938	     -9.72328205	     53.15907261	      0.92780084	     -7.01722106
     15.28000000	      1.67868424	     -6.85452892	      0.77274299	      2.43306419	      0.94443365	      1.08429872	     18.07267161	      9.12908348	    -13.32863428	     18.58784706	      0.32441913	      7.34768889	    -11.02111798	    -15.01264301	     -9.37255062	     56.22293153	      0.98127527	     -6.10234053
     15.28666667	      2.73922409	     -7.48587753	      0.77158562	      2.43251704	      0.94007385	      1.08467259	     17.39847051	      9.54845510	    -14.09095704	     21.14411904	      0.36903449	      7.25737770	    -10.96420791	    -15.97760206	     -8.91294418	     59.29059795	      1.03481615	     -5.19257955
     15.29333333	      3.77104329	     -8.09128576	      0.73497454	      2.43173934	      0.93555489	      1.08508852	     16.73029448	      9.95713633	    -14.67535985	     23.72148817	      0.41401807	      7.41869430	    -10.81920908	    -16.91779666	     -8.51361132	     62.32000566	      1.08768929	     -4.26192323
     15.30000000	      4.33680412	     -8.63296424	      0.80303288	      2.43070702	      0.93050457	      1.08532302	     16.59475984	     10.22141260	    -15.37985152	     26.40579913	      0.46086814	      7.91443524	     -9.96746683	    -17.72802460	     -7.74618897	     65.40487930	      1.14153049	     -3.30653380
     15.30666667	      5.38687288	     -9.24570707	      0.60566725	      2.42951667	      0.92608258	      1.08582778	     15.81971599	     10.73263168	    -15.48764662	     28.92022306	      0.50475311	      8.77148526	     -9.82908022	    -18.61631560	     -7.53544549	     68.21873722	      1.19064158	     -2.34293495
     15.31333333	      6.19911328	     -9.82109145	      0.43061839	      2.42813208	      0.92157234	      1.08627235	     15.25009636	     11.17452125	    -15.64797802	     31.40349373	      0.54809436	      9.94419694	     -9.32056611	    -19.41835993	     -7.15584565	     70.97477714	      1.23874355	     -1.30442677
     15.32000000	      6.11971678	    -10.17498588	      0.26175139	      2.42633625	      0.91640973	      1.08664209	     15.64382611	     11.37310442	    -15.70082172	     33.90167578	      0.59169586	     11.33114404	     -7.55943705	    -19.85478747	     -6.28048354	     73.80937843	      1.28821667	     -0.30344946
     15.32666667	      6.31226120	    -10.53605244	     -0.03561179	      2.42444120	      0.91196749	      1.08713636	     15.56670064	     11.69653918	    -15.43332961	     36.11545666	      0.63033363	     12.96016484	     -6.18005282	    -20.29609057	     -5.69936081	     76.37492243	      1.33299386	      0.68437480
     15.33333333	      6.26295260	    -10.78283085	     -0.38127717	      2.42239321	      0.90778433	      1.08766452	     15.61451163	     11.94523066	    -15.03940648	     38.11526580	      0.66523688	     14.68841350	     -4.46522184	    -20.55704255	     -5.04675620	     78.77540907	      1.37489026	      1.61185637
     15.34000000	      6.65106693	    -11.03277106	     -0.71963683	      2.42035410	      0.90472229	      1.08815516	     14.94980916	     12.26341794	    -14.49851004	     39.70610377	      0.69300224	     16.46762249	     -3.29777194	    -20.80910816	     -4.56644321	     80.82860259	      1.41072524	      2.55237600
     15.34666667	      5.54271149	    -10.88055650	     -1.09560007	      2.41799678	      0.90062684	      1.08863004	     15.89674424	     12.13164586	    -14.01719128	     41.29712295	      0.72077077	     18.05153445	     -0.13686942	    -20.47850316	     -3.50773848	     82.96345720	      1.44798549	      3.25703460
     15.35333333	      4.97082065	    -10.74009997	     -1.41826636	      2.41580571	      0.89784955	      1.08905592	     15.99625391	     12.05385543	    -13.48263016	     42.42444850	      0.74044631	     19.57527335	      2.33076813	    -20.17105920	     -2.68355329	     84.67362233	      1.47783350	      3.88143730
     15.36000000	      5.23326165	    -10.69465736	     -1.74276076	      2.41376559	      0.89688798	      1.08947459	     14.88809760	     12.15027308	    -12.72582068	     42.99096872	      0.75033395	     20.74890121	      3.69676576	    -19.98808899	     -2.22767509	     85.89532913	      1.49915631	      4.36092790
     15.36666667	      3.73298031	    -10.13575183	     -1.89738117	      2.41178497	      0.89440132	      1.08960168	     15.71386040	     11.54491825	    -12.52297005	     43.64656124	      0.76177620	     22.06751727	      7.36358620	    -19.09401697	     -1.10841642	     87.15092829	      1.52107064	      4.77716171
     15.37333333	      3.17672883	     -9.75877442	     -2.07804596	      2.41010140	      0.89382116	      1.08986118	     15.20961803	     11.22244983	    -12.06763137	     43.72495822	      0.76314449	     23.01029452	      9.72047184	    -18.49068537	     -0.50689424	     87.86645148	      1.53355888	      5.05810410
     15.38000000	      2.64748994	     -9.33454648	     -2.23255427	      2.40870074	      0.89398436	      1.09009619	     14.48805794	     10.85639302	    -11.63122843	     43.45598454	      0.75845001	     23.72166744	     11.95162534	    -17.84843802	     -0.04654795	     88.22220501	      1.53976795	      5.25255656
     15.38666667	      2.47694286	     -8.92271020	     -2.44541853	      2.40775331	      0.89531573	      1.09048887	     13.14748589	     10.53616078	    -11.09059905	     42.77755260	      0.74660914	     24.18397222	     13.55672988	    -17.33923414	      0.01370256	     88.12165408	      1.53801301	      5.46808717
     15.39333333	      2.20076321	     -8.43074981	     -2.56992134	      2.40702749	      0.89706027	      1.09079705	     11.81243536	     10.10302044	    -10.68075677	     41.87559720	      0.73086705	     24.50631335	     15.22739201	    -16.74644398	      0.03634054	     87.72289489	      1.53105335	      5.61690859
     15.40000000	      1.88316323	     -7.86561022	     -2.57654609	      2.40647059	      0.89925903	      1.09095924	     10.42257613	      9.59089580	    -10.34720195	     40.74899139	      0.71120407	     24.62277841	     16.89442780	    -16.03370416	      0.07154448	     87.03727993	      1.51908711	      5.70040418
     15.40666667	      1.93680238	     -7.27419156	     -2.32154605	      2.40631334	      0.90246376	      1.09080643	      8.46232480	      8.97673596	    -10.36244962	     39.26420588	      0.68528967	     24.51014975	     18.04477946	    -15.22999595	      0.13195434	     85.94941546	      1.50010029	      5.77694860
     15.41333333	      1.47039424	     -6.70004549	     -2.42451755	      2.40635550	      0.90540719	      1.09111548	      7.02334189	      8.51348873	     -9.94299106	     37.70773981	      0.65812421	     24.16409179	     19.53776205	    -14.64433771	     -0.27399619	     84.62412951	      1.47696969	      5.95977386
     15.42000000	      2.18028935	     -6.12799727	     -2.39000510	      2.40695728	      0.91027157	      1.09135743	      4.07126605	      7.99656530	     -9.64636827	     35.67247557	      0.62260215	     23.54139879	     19.45838298	    -14.11807311	     -0.97907921	     82.77992232	      1.44478220	      6.17250637
     15.42666667	      1.47332631	     -5.49006836	     -2.46694860	      2.40752616	      0.91352238	      1.09158575	      2.79951919	      7.46667839	     -9.31036120	     33.88988315	      0.59149004	     22.68537976	     20.95274327	    -13.48820920	     -1.58531393	     80.91505702	      1.41223416	      6.37476616
     15.43333333	      2.23322750	     -4.83223524	     -2.48960960	      2.40859722	      0.91890430	      1.09184077	     -0.28331371	      6.85158890	     -9.00478567	     31.63924021	      0.55220891	     21.51841735	     20.50750233	    -12.92997658	     -2.62794633	     78.51991046	      1.37043097	      6.61146668
     15.44000000	      2.19368560	     -4.12997113	     -2.57923487	      2.40971610	      0.92337182	      1.09204862	     -2.38404261	      6.19746121	     -8.72135218	     29.57555657	      0.51619084	     20.07756437	     20.88523985	    -12.30025145	     -3.66005158	     76.00672092	      1.32656753	      6.80058787
     15.44666667	      2.09939955	     -3.40214508	     -2.62387582	      2.41099543	      0.92781640	      1.09210476	     -4.39596384	      5.49689644	     -8.54257793	     27.52251715	      0.48035854	     18.37654453	     21.21837219	    -11.59241963	     -4.69941211	     73.26933955	      1.27879122	      7.00136890
     15.45333333	      1.91051446	     -2.64496024	     -2.65778044	      2.41235386	      0.93217065	      1.09206286	     -6.22751414	      4.74327381	     -8.45926732	     25.56515119	      0.44619606	     16.39241790	     21.54463208	    -10.81625867	     -5.77661285	     70.31020305	      1.22714454	      7.15807268
     15.46000000	      1.72407347	     -1.87110679	     -2.69629933	      2.41385825	      0.93646662	      1.09192431	     -7.99049577	      3.94078484	     -8.44189589	     23.69924604	      0.41362987	     14.17532765	     21.75087047	     -9.98675248	     -6.90132304	     67.13838149	      1.17178581	      7.26387247
     15.46666667	      0.50980259	     -1.31426763	     -2.67632207	      2.41525909	      0.93923791	      1.09158013	     -8.38807873	      3.34326513	     -8.73218264	     22.31679415	      0.38950154	     11.73616241	     23.13734392	     -9.39067182	     -7.87512298	     64.04459292	      1.11778901	      7.49392516
     15.47333333	      1.08023677	     -0.32436881	     -2.65690346	      2.41686632	      0.94449471	      1.09121965	    -10.88299492	      2.29376936	     -8.72045552	     20.45522086	      0.35701095	      9.20191903	     22.20865204	     -8.11380367	     -9.00306399	     60.21475924	      1.05094581	      7.35754347
     15.48000000	      0.65062105	      0.41289828	     -2.58237902	      2.41828674	      0.94823549	      1.09063289	    -12.02362905	      1.48433533	     -8.98822850	     19.10942105	      0.33352232	      6.56609079	     22.43535774	     -7.07724808	     -9.89910362	     56.46575931	      0.98551341	      7.33123990
     15.48666667	     -0.52327649	      0.83587963	     -2.40609823	      2.41933419	      0.95072671	      1.08975897	    -12.06615114	      0.98707992	     -9.40845147	     18.30702888	      0.31951793	      3.72497104	     23.56597848	     -6.29479287	    -10.46770803	     52.84384348	      0.92229906	      7.53604840
     15.49333333	     -0.60492824	      1.80993178	     -2.16675320	      2.42070039	      0.95466058	      1.08884122	    -13.39227882	     -0.07956930	     -9.95792781	     17.24775999	      0.30103020	      1.24703700	     23.18495195	     -4.75521158	    -11.13734479	     48.55679263	      0.84747591	      7.33613555
